<svg xmlns="http://www.w3.org/2000/svg" width="40" height="40" viewBox="0 0 40 40">
    <title>
        twitter
    </title>
    <path fill="#000000" fill-rule="evenodd" d="M23.349,2.246 C22.49,2.627 21.566,2.885 20.597,3 C21.586,2.407 22.346,1.468 22.703,0.35 C21.777,0.899 20.752,1.298 19.661,1.513 C18.788,0.582 17.543,0 16.165,0 C13.519,0 11.375,2.145 11.375,4.79 C11.375,5.165 11.417,5.531 11.499,5.882 C7.518,5.682 3.988,3.775 1.625,0.877 C1.213,1.585 0.977,2.407 0.977,3.285 C0.977,4.947 1.823,6.413 3.108,7.272 C2.323,7.247 1.584,7.032 0.939,6.673 L0.939,6.734 C0.939,9.055 2.59,10.991 4.781,11.431 C4.379,11.54 3.956,11.599 3.519,11.599 C3.21,11.599 2.91,11.569 2.618,11.513 C3.227,13.416 4.996,14.801 7.093,14.84 C5.454,16.125 3.388,16.891 1.144,16.891 C0.757,16.891 0.376,16.869 0.001,16.824 C2.121,18.183 4.639,18.976 7.344,18.976 C16.155,18.976 20.973,11.677 20.973,5.347 C20.973,5.139 20.969,4.932 20.959,4.727 C21.895,4.05 22.707,3.207 23.349,2.246 L23.349,2.246 Z" transform="translate(9 11)"/>
</svg>
