<svg xmlns="http://www.w3.org/2000/svg" width="40" height="40" viewBox="0 0 40 40">
    <title>
        instagram
    </title>
    <g fill="none" fill-rule="evenodd" transform="translate(10 10)">
        <path d="M12.3375 6.3C11.4926 6.3 10.7352 6.6738 10.2158 7.2625L14.4592 7.2625C13.93945 6.6738 13.18205 6.3 12.3375 6.3L12.3375 6.3zM16.91935 9.1322C16.91935 11.65885 14.86415 13.71405 12.3375 13.71405 9.81085 13.71405 7.7553 11.65885 7.7553 9.1322 7.7553 8.46615 7.9016 7.8344 8.15815 7.2625L5.775 7.2625 5.775 15.75 18.9 15.75 18.9 7.2625 16.51615 7.2625C16.77305 7.8344 16.91935 8.4658 16.91935 9.1322L16.91935 9.1322z"/>
        <path d="M9.5053,9.1322 C9.5053,10.69355 10.7758,11.96405 12.3375,11.96405 C13.89885,11.96405 15.16935,10.69355 15.16935,9.1322 C15.16935,8.4154 14.8995,7.76195 14.4592,7.2625 L10.2158,7.2625 C9.77515,7.76195 9.5053,8.4154 9.5053,9.1322 L9.5053,9.1322 Z"/>
        <path fill="#000000" d="M19.75715,0 L1.41785,0 C0.7315,0 0.175,0.5565 0.175,1.24285 L0.175,19.58215 C0.175,20.2685 0.7315,20.825 1.41785,20.825 L19.75715,20.825 C20.4435,20.825 21,20.2685 21,19.58215 L21,1.24285 C21,0.5565 20.4435,0 19.75715,0 L19.75715,0 Z M7.9296,8.001 C8.58025,7.2639 9.5291,6.7956 10.5875,6.7956 C11.6452,6.7956 12.59405,7.2639 13.24505,8.001 C13.797,8.6268 14.13475,9.4451 14.13475,10.34285 C14.13475,12.29865 12.5433,13.8901 10.5875,13.8901 C8.63135,13.8901 7.0399,12.29865 7.0399,10.34285 C7.0399,9.44545 7.37765,8.6268 7.9296,8.001 L7.9296,8.001 Z M18.80795,18.63295 L2.36705,18.63295 L2.36705,8.001 L5.35255,8.001 C5.03125,8.71745 4.84785,9.50845 4.84785,10.34285 C4.84785,13.5079 7.4228,16.08215 10.5875,16.08215 C13.7522,16.08215 16.3268,13.5079 16.3268,10.34285 C16.3268,9.50845 16.1434,8.7171 15.8221,8.001 L18.80795,8.001 L18.80795,18.63295 L18.80795,18.63295 Z M18.80795,4.5003 C18.80795,5.0526 18.35995,5.50025 17.8073,5.50025 L16.5004,5.50025 C15.94775,5.50025 15.49975,5.0526 15.49975,4.5003 L15.49975,3.19235 C15.49975,2.64005 15.94775,2.1924 16.5004,2.1924 L17.8073,2.1924 C18.35995,2.1924 18.80795,2.64005 18.80795,3.19235 L18.80795,4.5003 L18.80795,4.5003 Z"/>
    </g>
</svg>
