<svg xmlns="http://www.w3.org/2000/svg" width="40" height="40" viewBox="0 0 40 40">
    <title>
        webio
    </title>
    <g fill="#000000" fill-rule="evenodd" transform="translate(7 8)">
        <path d="M11.0889117 19.0708467C6.88819102 19.4848351 3.26174277 17.5866661 2.98863848 14.8281245 2.71591089 12.0705245 5.90143697 9.49825884 10.1017809 9.08314032 14.3030666 8.66726841 17.9295149 10.5665675 18.2022425 13.3236024 18.474405 16.0825207 15.2901974 18.6555398 11.0889117 19.0708467M19.4914831 9.91469579C19.1341873 9.8079026 18.8889585 9.73482366 19.0761762 9.26564933 19.4813123 8.24593442 19.5233138 7.36635026 19.0838984 6.73896379 18.2602536 5.56235518 16.0062956 5.62564003 13.4225407 6.70732136 13.4225407 6.70600293 12.6113268 7.06254529 12.8186977 6.41877256 13.2161116 5.14120953 13.1564053 4.07120576 12.5378712 3.45342503 11.1363753 2.05061073 7.40897265 3.50635076 4.21214569 6.70185928 1.81862204 9.09575963.428615385 11.6328043.428615385 13.8268676.428615385 18.0234446 5.8100883 20.5746154 11.0749739 20.5746154 17.9762251 20.5746154 22.5672024 16.564691 22.5672024 13.3814251 22.5672024 11.4580175 20.9472231 10.3663538 19.4914831 9.91469579M24.0743614 2.23519156C22.4080485.387499784 19.9495449-.316544236 17.6801424.165814441L17.679389.165814441C17.1548404.277881373 16.8197697.794519348 16.93259 1.31887958 17.0440919 1.84305147 17.5605416 2.17849887 18.0856552 2.06605524 19.6997957 1.72345062 21.4465331 2.22539747 22.631994 3.53742814 23.8155715 4.84983551 24.1368928 6.64026955 23.6300489 8.20939495L23.6302373 8.20995999C23.4648679 8.72132423 23.744376 9.2682862 24.2563053 9.4334672 24.7663511 9.59864821 25.3140665 9.31895175 25.4794358 8.80928264 25.4794358 8.80852925 25.4794358 8.80664578 25.4796242 8.80570404 26.1912021 6.59732626 25.7419927 4.0811882 24.0743614 2.23519156"/>
        <path d="M21.5149033 4.54490044C20.7036894 3.64553977 19.5061742 3.30350019 18.4003843 3.53836988 17.9483497 3.6346156 17.6603659 4.07949307 17.757365 4.53190445 17.8541758 4.98205565 18.2984882 5.27173455 18.7492044 5.173417L18.7492044 5.17435874C19.2895742 5.05984329 19.8755242 5.22653108 20.2725613 5.66538142 20.6694101 6.10573854 20.7763916 6.70524954 20.6055602 7.2313049L20.6061252 7.2313049C20.4644877 7.67015524 20.7048195 8.14196644 21.1444232 8.28473406 21.5844036 8.42542986 22.0556498 8.18566313 22.1972873 7.7460594 22.5449773 6.66984015 22.3278124 5.44463781 21.5149033 4.54490044M11.3207678 14.0752984C11.1738565 14.326931 10.8489566 14.4476619 10.5946871 14.3427522 10.3441845 14.2399143 10.2658318 13.9588994 10.4080344 13.7117871 10.554569 13.46637 10.8668496 13.3463924 11.1164104 13.4450867 11.3701149 13.5383188 11.4610869 13.8225356 11.3207678 14.0752984M9.98218009 15.7935952C9.57591391 16.4418883 8.70574715 16.7257284 8.05010851 16.4268205 7.40426395 16.1328096 7.21384434 15.3794184 7.62029886 14.7475116 8.02166799 14.1182417 8.8624525 13.8374151 9.5131941 14.1103311 10.1710929 14.3905926 10.3814774 15.13871 9.98218009 15.7935952M11.5089272 11.2056315C9.50980384 10.6852266 7.25019546 11.6815864 6.38191217 13.4433915 5.49761932 15.2398527 6.35271827 17.2340791 8.37218322 17.8859508 10.4645388 18.5606125 12.9301996 17.5265832 13.7879354 15.5877311 14.6334286 13.6920106 13.577551 11.7403509 11.5089272 11.2056315"/>
    </g>
</svg>
