<svg xmlns="http://www.w3.org/2000/svg" width="40" height="40" viewBox="0 0 40 40" xmlns:xlink="http://www.w3.org/1999/xlink">
    <title>
        youtube
    </title>
    <defs>
        <polyline id="a" points=".002 .016 28.413 .016 28.413 19.998 .002 19.998"/>
    </defs>
    <g fill="none" fill-rule="evenodd" transform="translate(6 10)">
        <polyline fill="#FFFFFF" points="11.272 13.693 18.949 9.716 11.272 5.71 11.272 13.693"/>
        <mask id="b" fill="white">
            <use xlink:href="#a"/>
        </mask>
        <path fill="#000000" d="M11.2732128,13.693491 L11.2719054,5.71018081 L18.949235,9.71574409 L11.2732128,13.693491 L11.2732128,13.693491 Z M28.1293463,4.32717663 C28.1293463,4.32717663 27.8517385,2.36920723 26.9997775,1.50698192 C25.9193324,0.375326843 24.7082615,0.369707928 24.152879,0.303477051 C20.1768846,0.0160500695 14.2126843,0.0160500695 14.2126843,0.0160500695 L14.2003338,0.0160500695 C14.2003338,0.0160500695 8.2362726,0.0160500695 4.26013908,0.303477051 C3.70472879,0.369707928 2.49410292,0.375326843 1.41326843,1.50698192 C0.561363004,2.36920723 0.284144645,4.32717663 0.284144645,4.32717663 C0.284144645,4.32717663 0,6.62648122 0,8.925758 L0,11.0813352 C0,13.3805841 0.284144645,15.6798609 0.284144645,15.6798609 C0.284144645,15.6798609 0.561363004,17.6378581 1.41326843,18.5000834 C2.49410292,19.6317663 3.91385257,19.5959666 4.54620306,19.7145758 C6.81927677,19.9325452 14.2065369,20 14.2065369,20 C14.2065369,20 20.1768846,19.9910153 24.152879,19.7036161 C24.7082615,19.6373574 25.9193324,19.6317663 26.9997775,18.5000834 C27.8517385,17.6378581 28.1293463,15.6798609 28.1293463,15.6798609 C28.1293463,15.6798609 28.4130737,13.3805841 28.4130737,11.0813352 L28.4130737,8.925758 C28.4130737,6.62648122 28.1293463,4.32717663 28.1293463,4.32717663 L28.1293463,4.32717663 Z" mask="url(#b)"/>
    </g>
</svg>
