<svg xmlns="http://www.w3.org/2000/svg" width="40" height="40" viewBox="0 0 40 40">
    <title>
        tripadvisor
    </title>
    <g fill="#000000" fill-rule="evenodd" transform="translate(4 11)">
        <path d="M7.97095238 9.53754762C7.2509881 9.53754762 6.66741667 10.121119 6.66741667 10.8413095 6.66741667 11.5621786 7.2509881 12.1452976 7.97095238 12.1452976 8.69114286 12.1452976 9.27471429 11.5621786 9.27471429 10.8413095 9.27471429 10.121119 8.69114286 9.53754762 7.97095238 9.53754762M24.0447262 9.51945238C23.3245357 9.51945238 22.7405119 10.1025714 22.7405119 10.8236667 22.7405119 11.5445357 23.3245357 12.1276548 24.0447262 12.1276548 24.7646905 12.1276548 25.3480357 11.5445357 25.3480357 10.8236667 25.3480357 10.1025714 24.7646905 9.51945238 24.0447262 9.51945238"/>
        <path d="M8.16977381,6.96191667 C6.02752381,6.96191667 4.29105952,8.69905952 4.29105952,10.8413095 C4.29105952,12.9846905 6.02752381,14.7200238 8.16977381,14.7200238 C10.3124762,14.7200238 12.0489405,12.9846905 12.0489405,10.8413095 C12.0489405,8.69905952 10.3124762,6.96191667 8.16977381,6.96191667 L8.16977381,6.96191667 Z M8.16977381,13.5289048 C6.6855119,13.5289048 5.48195238,12.3255714 5.48195238,10.8413095 C5.48195238,9.35636905 6.6855119,8.15303571 8.16977381,8.15303571 C9.65471429,8.15303571 10.8580476,9.35636905 10.8580476,10.8413095 C10.8580476,12.3255714 9.65471429,13.5289048 8.16977381,13.5289048 L8.16977381,13.5289048 Z M32.3067857,2.98164286 L26.96575,2.98164286 C24.2417381,1.14859524 20.5218095,0.00361904762 16.2560833,0.00361904762 C11.9885476,0.00361904762 8.01347619,1.14769048 5.28946429,2.98164286 L0.201535714,2.98164286 C1.03120238,3.95222619 1.64508333,5.2654881 1.7979881,6.1677619 C0.838940476,7.48554762 0.27075,9.10642857 0.27075,10.8607619 C0.27075,15.274869 3.84885714,18.8534286 8.2625119,18.8534286 C10.767119,18.8534286 13.0016548,17.6994048 14.4669167,15.8968929 C15.0647381,16.5949167 16.053869,17.9997857 16.2542738,18.4080595 C16.2542738,18.4080595 17.4019643,16.6939881 18.0470595,15.9039048 C19.5120952,17.7030238 21.7448214,18.8534286 24.2460357,18.8534286 C28.6594643,18.8534286 32.2377976,15.274869 32.2377976,10.8607619 C32.2377976,9.10733333 31.6689286,7.48758333 30.7103333,6.17025 C30.8621071,5.26820238 31.4762143,3.95335714 32.3067857,2.98164286 L32.3067857,2.98164286 Z M8.2625119,17.29475 C4.70928571,17.29475 1.82897619,14.4144405 1.82897619,10.8607619 C1.82897619,7.30821429 4.70928571,4.42745238 8.2625119,4.42745238 C11.8157381,4.42745238 14.6967262,7.30821429 14.6967262,10.8607619 C14.6967262,14.4144405 11.8157381,17.29475 8.2625119,17.29475 L8.2625119,17.29475 Z M8.27495238,2.87035714 C10.5615119,1.87444048 13.400881,1.3372381 16.2560833,1.3372381 C19.1162619,1.3372381 21.7077262,1.87625 23.997,2.8760119 C19.699381,3.00765476 16.2551786,6.52989286 16.2542738,10.8589524 C16.253369,6.45095238 12.6820476,2.87646429 8.27495238,2.87035714 L8.27495238,2.87035714 Z M24.2460357,17.29475 C20.6923571,17.29475 17.8120476,14.4144405 17.8120476,10.8607619 C17.8120476,7.30821429 20.6923571,4.42745238 24.2460357,4.42745238 C27.7988095,4.42745238 30.6793452,7.30821429 30.6793452,10.8607619 C30.6793452,14.4144405 27.7988095,17.29475 24.2460357,17.29475 L24.2460357,17.29475 Z M24.2435476,6.94427381 C22.1008452,6.94427381 20.3646071,8.6805119 20.3646071,10.8236667 C20.3646071,12.9652381 22.1008452,14.702381 24.2435476,14.702381 C26.385119,14.702381 28.1222619,12.9652381 28.1222619,10.8236667 C28.1222619,8.6805119 26.385119,6.94427381 24.2435476,6.94427381 L24.2435476,6.94427381 Z M24.2435476,13.5112619 C22.7590595,13.5112619 21.5557262,12.3079286 21.5557262,10.8236667 C21.5557262,9.33827381 22.7590595,8.13494048 24.2435476,8.13494048 C25.7278095,8.13494048 26.9311429,9.33827381 26.9311429,10.8236667 C26.9311429,12.3079286 25.7278095,13.5112619 24.2435476,13.5112619 L24.2435476,13.5112619 Z"/>
    </g>
</svg>
