<svg xmlns="http://www.w3.org/2000/svg" width="40" height="40" viewBox="0 0 40 40">
    <title>
        Phone
    </title>
    <path fill="#DB002C" fill-rule="evenodd" d="M0.1,5.396 L0.184,5.679 C1.14,8.776 3.57,12.434 6.851,15.715 C10.13,18.996 13.789,21.426 16.882,22.381 C16.978,22.411 17.072,22.44 17.085,22.434 C17.118,22.451 17.159,22.465 17.196,22.475 C17.454,22.537 17.719,22.569 17.985,22.569 C18.588,22.569 19.178,22.406 19.71,22.089 C19.837,22.007 19.964,21.917 20.093,21.819 C21.007,21.132 21.891,20.141 22.345,19.296 C22.357,19.274 22.366,19.251 22.374,19.228 C22.505,18.963 22.573,18.668 22.573,18.373 C22.574,17.873 22.385,17.4 22.042,17.037 C22.033,17.027 22.024,17.016 22.015,17.007 C21.018,15.963 19.148,14.746 17.737,13.958 L17.541,13.85 C16.963,13.575 16.257,13.612 15.709,13.942 C15.678,13.956 15.649,13.97 15.622,13.989 C15.351,14.173 15.052,14.396 14.752,14.621 C14.504,14.808 14.256,14.994 13.976,15.193 C13.911,15.252 13.837,15.299 13.754,15.339 C13.524,15.447 13.254,15.456 13.01,15.36 C12.938,15.333 12.869,15.296 12.765,15.222 C11.914,14.727 10.825,13.842 9.776,12.793 C8.729,11.745 7.843,10.656 7.32,9.76 C7.275,9.698 7.238,9.63 7.208,9.557 C7.165,9.445 7.142,9.329 7.142,9.212 C7.142,9.073 7.173,8.939 7.232,8.812 C7.27,8.731 7.319,8.657 7.416,8.542 C7.578,8.31 7.766,8.059 7.955,7.808 C8.178,7.511 8.399,7.214 8.581,6.945 C8.599,6.919 8.613,6.891 8.625,6.863 C8.81,6.56 8.906,6.214 8.906,5.857 C8.906,5.568 8.844,5.289 8.704,4.995 L8.617,4.837 C8.23,4.148 6.872,1.801 5.563,0.553 C5.553,0.544 5.542,0.535 5.533,0.526 C4.957,-0.021 4.053,-0.156 3.344,0.19 C3.32,0.199 3.296,0.209 3.272,0.222 C2.414,0.682 1.446,1.546 0.748,2.475 C0.652,2.603 0.562,2.73 0.469,2.874 C0.162,3.389 0,3.979 0,4.582 C0,4.846 0.031,5.107 0.091,5.359 C0.093,5.372 0.097,5.384 0.1,5.396 L0.1,5.396 Z M1.318,3.402 C1.388,3.294 1.465,3.186 1.548,3.075 C2.139,2.288 2.973,1.533 3.688,1.134 C3.709,1.126 3.73,1.117 3.75,1.106 C4.101,0.915 4.573,0.98 4.862,1.269 C4.875,1.282 4.888,1.294 4.903,1.306 C5.856,2.23 6.992,3.983 7.741,5.324 L7.815,5.454 C7.876,5.581 7.905,5.717 7.905,5.857 C7.905,6.045 7.85,6.227 7.745,6.381 C7.73,6.403 7.718,6.427 7.706,6.451 C7.542,6.69 7.348,6.949 7.154,7.208 C6.958,7.469 6.763,7.73 6.632,7.925 C6.509,8.063 6.406,8.219 6.327,8.388 C6.205,8.648 6.142,8.926 6.142,9.212 C6.142,9.453 6.187,9.691 6.277,9.921 C6.338,10.073 6.416,10.216 6.483,10.305 C7.021,11.23 7.963,12.394 9.068,13.497 C10.175,14.604 11.339,15.547 12.218,16.056 C12.349,16.151 12.493,16.23 12.646,16.288 C13.136,16.481 13.705,16.464 14.176,16.241 C14.345,16.163 14.501,16.059 14.593,15.972 C14.835,15.805 15.093,15.61 15.353,15.416 C15.613,15.221 15.874,15.025 16.114,14.859 C16.138,14.847 16.162,14.835 16.184,14.82 C16.455,14.636 16.847,14.623 17.089,14.738 L17.241,14.822 C18.581,15.57 20.333,16.705 21.261,17.662 C21.273,17.676 21.284,17.689 21.298,17.703 C21.476,17.881 21.573,18.117 21.573,18.367 C21.573,18.527 21.534,18.678 21.46,18.816 C21.45,18.835 21.441,18.853 21.435,18.873 C21.035,19.59 20.279,20.426 19.491,21.018 C19.382,21.102 19.273,21.178 19.181,21.238 C18.662,21.548 17.999,21.637 17.443,21.503 C17.358,21.48 17.273,21.455 17.183,21.427 C14.235,20.517 10.727,18.177 7.558,15.007 C4.389,11.837 2.049,8.33 1.14,5.382 L1.075,5.182 C1.073,5.167 1.069,5.151 1.066,5.136 C1.022,4.957 1,4.771 1,4.582 C1,4.159 1.113,3.746 1.318,3.402 L1.318,3.402 Z" transform="translate(9 9)"/>
</svg>
