<svg xmlns="http://www.w3.org/2000/svg" width="40" height="40" viewBox="0 0 40 40">
    <title>
        Evelope
    </title>
    <path fill="#D0011B" fill-rule="evenodd" d="M1.29705882,16.4414118 C1.30023529,16.4456471 1.30552941,16.4467059 1.30870588,16.4509412 C1.68247059,16.8363529 2.20447059,17.0798824 2.78258824,17.0798824 L23.8288235,17.0798824 C24.4069412,17.0798824 24.9289412,16.8374118 25.3027059,16.4498824 C25.3058824,16.4467059 25.3111765,16.4456471 25.3132941,16.4414118 C25.3175294,16.4371765 25.3196471,16.4308235 25.3228235,16.4255294 C25.6669412,16.0581176 25.8829412,15.5668235 25.8829412,15.0247059 L25.8829412,12.762 L25.8829412,5.16282353 L25.8829412,2.90011765 C25.8829412,2.36329412 25.6711765,1.87729412 25.3312941,1.51094118 C25.3270588,1.50564706 25.3270588,1.49823529 25.3217647,1.49294118 C25.3185882,1.48870588 25.3122353,1.48764706 25.308,1.48235294 C24.9331765,1.09164706 24.4101176,0.844941176 23.8277647,0.844941176 L2.78047059,0.844941176 C1.64858824,0.844941176 0.727411765,1.76717647 0.727411765,2.89905882 L0.727411765,5.16176471 L0.727411765,12.762 L0.727411765,15.0247059 C0.727411765,15.5668235 0.942352941,16.0570588 1.28752941,16.4244706 C1.29176471,16.4297647 1.29282353,16.4371765 1.29705882,16.4414118 L1.29705882,16.4414118 Z M9.16411765,8.94494118 L1.83705882,15.2756471 C1.81482353,15.1941176 1.78623529,15.1147059 1.78623529,15.0257647 L1.78623529,12.7630588 L1.78623529,5.16282353 L1.78623529,2.90011765 C1.78623529,2.81329412 1.81482353,2.736 1.83494118,2.65658824 L9.16411765,8.94494118 L9.16411765,8.94494118 Z M2.78152941,16.0210588 C2.72752941,16.0210588 2.68094118,15.9988235 2.62905882,15.9903529 L9.97517647,9.64270588 L12.1807059,11.5348235 C12.5121176,11.7751765 12.9038824,11.9011765 13.3125882,11.9011765 C13.7265882,11.9011765 14.1194118,11.772 14.4836471,11.502 L16.6478824,9.64270588 L23.9802353,15.9903529 C23.9283529,15.9988235 23.8817647,16.0210588 23.8267059,16.0210588 L2.78152941,16.0210588 L2.78152941,16.0210588 Z M24.7743529,2.66082353 C24.7955294,2.73917647 24.8230588,2.81541176 24.8230588,2.90011765 L24.8230588,5.16282353 L24.8230588,12.7630588 L24.8230588,15.0257647 C24.8230588,15.1147059 24.7955294,15.1930588 24.7722353,15.2756471 L17.4621176,8.94494118 L24.7743529,2.66082353 L24.7743529,2.66082353 Z M23.8267059,1.90482353 C23.8849412,1.90482353 23.9368235,1.92811765 23.9908235,1.93764706 L13.8250588,10.674 C13.5254118,10.8910588 13.0658824,10.8656471 12.834,10.7025882 L2.62270588,1.93658824 C2.67670588,1.92811765 2.72541176,1.90482353 2.78047059,1.90482353 L23.8267059,1.90482353 L23.8267059,1.90482353 Z" transform="translate(7 11)"/>
</svg>
