<svg xmlns="http://www.w3.org/2000/svg" width="343" height="102"><path d="M318.138 65.824V50.402c-1.665-.247-2.96-1.666-2.96-3.393V46.7c0-.123 0-.308-.124-.37-.124-.185-.494-.37-.617-.432l-11.351-4.38-.432-.185c-.309-.123-.74-.308-1.049-.247-.432.062-.678.247-.74.309-.925 1.048-2.468 1.48-3.825.925-1.789-.679-2.653-2.653-1.974-4.442.679-1.789 2.653-2.652 4.442-1.974 1.357.494 2.22 1.79 2.22 3.208 0 .124.062.432.37.74.247.247.68.432.988.556l.432.185 11.227 4.318.124.062c.185.061.493.185.74.123h.062c-.062-.308-.309-.555-.432-.678l-8.76-8.452-.37-.37c-.247-.247-.556-.555-.864-.617-.432-.124-.74-.062-.802 0-1.234.617-2.838.37-3.887-.617-1.357-1.296-1.418-3.516-.061-4.874 1.295-1.357 3.516-1.418 4.873-.061 1.05.987 1.296 2.529.802 3.825-.061.123-.123.431.062.863.123.309.432.617.679.864l.37.308 8.636 8.329.124.123c.123.123.432.37.678.37h.124c.061-.308-.062-.617-.124-.802l-4.935-11.228-.185-.431c-.123-.309-.308-.74-.555-.926-.37-.308-.617-.308-.74-.37-1.42.062-2.715-.74-3.332-2.097-.74-1.728.062-3.764 1.79-4.504a3.42 3.42 0 0 1 4.503 1.85c.555 1.358.246 2.839-.802 3.826-.062.061-.247.308-.309.802 0 .308.185.802.309 1.048l.185.432 4.688 11.043.062.123c.062.124.247.494.432.617l.062.062c.185-.247.185-.617.185-.802V30.105c0-.308 0-.802-.124-1.048-.185-.37-.432-.556-.555-.617a3.423 3.423 0 0 1-2.22-3.208 3.449 3.449 0 0 1 3.454-3.455 3.449 3.449 0 0 1 3.454 3.455c0 1.48-.925 2.714-2.22 3.208-.124.061-.37.185-.556.617-.123.308-.123.802-.123 1.11V42.814c0 .185 0 .555.185.74h.123c.186-.124.37-.494.432-.617l.062-.123 4.688-11.043.186-.432c.123-.308.308-.74.308-1.049-.062-.493-.247-.74-.308-.802-.987-.987-1.358-2.467-.802-3.824.74-1.728 2.776-2.591 4.503-1.851 1.727.74 2.591 2.776 1.789 4.503-.555 1.357-1.912 2.16-3.331 2.098-.124 0-.432.061-.74.37-.247.185-.432.617-.556.925l-.185.432-4.75 11.166c-.062.185-.185.494-.123.74.061.062.061.062.123.062.247-.062.555-.308.679-.37l.123-.123 8.637-8.329.37-.308c.247-.247.555-.555.678-.864.124-.432.062-.74.062-.863a3.423 3.423 0 0 1 .802-3.825 3.483 3.483 0 0 1 4.874.061c1.295 1.358 1.295 3.578-.062 4.874-1.049 1.049-2.653 1.234-3.887.617-.123-.062-.431-.124-.802 0-.308.062-.678.432-.863.617l-.37.37-9.007 8.39c-.124.123-.37.37-.432.617 0 .061.062.061.062.061.246.062.617-.061.74-.123l.123-.062 11.228-4.318.432-.185c.308-.123.74-.308.987-.555.308-.37.37-.679.37-.74 0-1.42.864-2.715 2.22-3.208 1.79-.68 3.764.185 4.443 1.974.678 1.789-.185 3.763-1.974 4.441-1.358.556-2.9.124-3.825-.925-.062-.062-.309-.247-.74-.308-.309-.062-.74.123-1.05.246l-.431.185-11.351 4.38c-.124.062-.494.247-.617.432-.124.124-.124.309-.124.494v.185c0 1.727-1.295 3.146-2.96 3.393v15.423h-.988v.061z"/><path d="M320.05 55.09c2.283-4.688 6.91-8.081 11.907-9.377 3.085-.617 7.218-.802 9.377 1.974-7.403 1.172-14.559 4.195-21.283 7.403m-2.961.74c-5.12 1.974-11.537 1.172-16.41-.987-2.344-1.172-6.17-3.393-4.935-6.539 7.402 1.296 14.559 4.257 21.345 7.526m.185-.74c-6.725-3.27-13.88-6.23-21.284-7.403 2.098-2.776 6.293-2.59 9.377-1.974 4.997 1.296 9.624 4.689 11.907 9.377m3.022.74c6.786-3.208 13.943-6.23 21.345-7.526 1.173 3.208-2.59 5.367-4.935 6.54-4.935 2.097-11.35 2.96-16.41.986m5.923 9.81a6.633 6.633 0 0 0 1.604-1.913c.432.74.987 1.357 1.604 1.912 2.035 1.79 5.058 2.715 7.526 2.715 1.727 0 3.763-.494 5.552-1.358v2.653c-1.85.74-3.825 1.11-5.552 1.11-2.9 0-6.54-1.11-9.13-3.33-2.591 2.282-6.293 3.33-9.192 3.33-2.9 0-6.54-1.11-9.13-3.33-2.591 2.282-6.293 3.33-9.192 3.33-1.666 0-3.64-.37-5.49-1.11v-2.653c1.727.864 3.762 1.358 5.49 1.358 2.467 0 5.49-.926 7.588-2.715a6.633 6.633 0 0 0 1.604-1.912c.431.74.987 1.357 1.604 1.912 2.035 1.79 5.058 2.715 7.526 2.715 2.467 0 5.49-.988 7.588-2.715zm16.286 12.337c-1.85.74-3.825 1.11-5.552 1.11-2.838 0-6.478-1.048-9.13-3.207-2.715 2.159-6.354 3.208-9.192 3.208s-6.478-1.05-9.13-3.208c-2.715 2.159-6.355 3.208-9.192 3.208-1.666 0-3.64-.37-5.49-1.11v-2.592c1.727.74 3.577 1.172 5.49 1.172 3.331 0 6.662-1.295 9.192-3.516 2.529 2.16 5.799 3.516 9.13 3.516 3.331 0 6.662-1.295 9.192-3.516 2.529 2.16 5.799 3.516 9.13 3.516 1.912 0 3.763-.431 5.552-1.172v2.591zm0-4.256c-1.85.74-3.825 1.11-5.552 1.11-2.838 0-6.478-1.049-9.13-3.208-2.715 2.16-6.354 3.208-9.192 3.208s-6.478-1.049-9.13-3.208c-2.715 2.16-6.355 3.208-9.192 3.208-1.666 0-3.64-.37-5.49-1.11V71.13c1.727.74 3.577 1.172 5.49 1.172 3.331 0 6.662-1.296 9.192-3.517 2.529 2.16 5.799 3.517 9.13 3.517 3.331 0 6.662-1.296 9.192-3.517 2.529 2.16 5.799 3.517 9.13 3.517 1.912 0 3.763-.432 5.552-1.172v2.59zM151.574 58.791l-3.393 9.562h6.786l-3.27-9.562h-.123zm-12.77 19.618l9.932-26.095h5.86l9.748 26.095s-5.614.74-6.478-1.48c-.431-1.05-1.48-4.32-1.48-4.32h-9.747l-2.036 5.8h-5.799zm62.308-12.215h-5.06c-.308-2.097-1.665-3.27-3.824-3.27-3.331 0-4.442 3.332-4.442 6.108 0 2.714 1.05 5.922 4.319 5.922 2.406 0 3.763-1.542 4.133-3.825h4.997c-.679 4.997-4.133 7.712-9.069 7.712-5.675 0-9.5-4.01-9.5-9.686 0-5.86 3.516-10.24 9.624-10.24 4.38.123 8.451 2.467 8.822 7.28zm39.111 4.935v-1.912c-.863.74-2.714.802-4.318 1.11-1.604.309-3.084.864-3.084 2.776 0 1.913 1.48 2.406 3.146 2.406 4.133-.061 4.256-3.27 4.256-4.38zm-6.786-5.799h-5.182c.309-4.873 4.627-6.292 8.884-6.292 3.763 0 8.266.864 8.266 5.367v9.809c0 1.727.185 3.455.679 4.195 0 0-5.614.493-5.614-1.85-1.666 1.726-4.071 2.343-6.354 2.343-3.578 0-6.416-1.789-6.416-5.675 0-4.257 3.208-5.306 6.416-5.737 3.146-.494 6.107-.37 6.107-2.468 0-2.22-1.542-2.53-3.33-2.53-1.975 0-3.27.803-3.456 2.838zm49.661 13.079c-1.542-.124-3.208-.494-3.393-1.666v-.308c-1.295 1.727-3.33 2.467-5.552 2.467-5.675 0-8.451-4.873-8.451-10.117 0-5.059 2.837-9.747 8.328-9.747 2.22 0 4.442.925 5.552 2.838l.062-9.5h5.182v21.838c0 1.727.185 3.455.678 4.195.062 0-1.11.123-2.406 0zm-3.208-9.439c0-3.084-1.11-5.984-4.441-5.984-3.393 0-4.565 2.9-4.565 6.046 0 2.961 1.357 6.046 4.565 6.046 3.454-.062 4.441-3.023 4.441-6.108zm-55.274 9.439a3.61 3.61 0 0 1-.802-.124l-.309-.061-.37-.062-.432-.123c-.74-.309-1.11-.679-1.234-1.234v-24.43h5.182v21.9c.062 1.851.186 3.455.679 4.196 0-.062-1.295.061-2.714-.062zm-43.06-18.878v14.683c.061 1.542.246 3.455.678 4.195 0 0-1.789.185-3.331-.124-1.234-.246-2.283-.678-2.283-1.665v-.802a7.113 7.113 0 0 1-5.86 3.146c-5.49 0-6.91-3.085-6.91-7.773v-11.66h5.182v10.673c0 3.084.926 4.627 3.332 4.627 2.776 0 4.01-1.543 4.01-5.429v-9.87h5.182zm65.577 18.878V59.53h4.935v2.653a7.113 7.113 0 0 1 5.86-3.146c5.491 0 6.91 3.084 6.91 7.773v9.192c0 1.727.185 1.727.679 2.468 0 0-1.358.123-2.715 0-1.542-.124-3.146-.617-3.146-1.79v-8.883c0-3.085-.925-4.627-3.331-4.627-2.838 0-4.01 1.542-4.01 5.429v9.87h-5.182v-.061zm-27.02-18.816h-6.108l-6.54 6.786V56.077c-1.11.308-2.467.493-4.133.493-.37 0-.678 0-1.048-.061v21.9h5.182V71.93l2.035-1.912 3.764 6.107s1.233 2.283 5.367 2.283h2.344l-7.897-11.906 7.033-6.91zM56.324 66.194c-.309-4.812-4.442-7.156-8.884-7.156-6.169 0-9.685 4.318-9.685 10.24 0 5.676 3.825 9.686 9.562 9.686 4.997 0 8.451-2.715 9.13-7.773h-5.059c-.308 2.282-1.727 3.825-4.133 3.825-3.27 0-4.318-3.27-4.318-5.984 0-2.776 1.11-6.17 4.442-6.17 2.159 0 3.516 1.111 3.824 3.27h5.12v.062zm1.48 12.276h5.182V59.531h-5.182v18.94zm5.182-26.156h-5.182v4.256h5.182v-4.256zM73.104 78.47h5.182V59.531h-5.182v18.94zm5.243-26.156h-5.182v4.256h5.182v-4.256zM90.685 78.47h5.182V59.531h-5.182v18.94zm5.244-26.156h-5.244v4.256h5.182v-4.256h.062zm20.111 17.952c.37-5.8-2.776-11.228-9.192-11.228-5.737 0-9.685 4.318-9.685 9.994 0 5.86 3.701 9.932 9.685 9.932 4.319 0 7.403-1.913 8.884-6.354h-4.565c-.309 1.172-2.036 2.467-4.134 2.467-2.9 0-4.503-1.48-4.626-4.811h13.633zm-13.695-3.27c.062-1.48 1.049-4.01 4.318-4.01 2.53 0 3.64 1.419 4.133 4.01h-8.451zm19.062 5.614c.185 2.036 2.036 2.838 3.948 2.838 1.481 0 3.393-.556 3.393-2.406 0-1.543-2.159-2.098-5.922-2.9-3.023-.678-6.046-1.727-6.046-5.059 0-4.811 4.195-6.045 8.267-6.045 4.133 0 7.958 1.419 8.39 6.045h-4.935c-.124-2.035-1.666-2.59-3.578-2.59-1.172 0-2.9.246-2.9 1.789 0 1.85 2.961 2.097 5.922 2.837 3.023.679 5.984 1.79 5.984 5.306 0 4.997-4.318 6.6-8.636 6.6-4.319 0-8.514-1.603-8.884-6.354h4.997v-.061zm-36.027-.247c0 1.727.432 2.22 2.22 2.22.556 0 1.05-.06 1.605-.123 0 0-.247 4.257-3.023 4.257-3.208 0-5.984-.74-5.984-4.503V53.856h5.182v5.675h3.455c2.406 0 .061 1.234-.37 3.455h-3.147l.062 9.377zm-16.842 6.046a3.61 3.61 0 0 1-.802-.124h-.308l-.123-.061-.124-.062-.123-.062-.124-.061-.123-.062-.123-.062-.124-.062h-.061c-.556-.246-.926-.616-1.05-1.11v-24.43h5.183v21.839c.062 1.85.185 3.455.678 4.195-.061.062-1.357.185-2.776.062zm-37.137-7.28c0 1.11-.124 4.319-4.195 4.319-1.666 0-3.208-.494-3.208-2.406 0-1.913 1.48-2.468 3.084-2.776 1.604-.309 3.455-.309 4.319-1.11v1.973zm-6.786-5.737c.185-2.036 1.48-2.838 3.454-2.838 1.851 0 3.393.309 3.393 2.53 0 2.097-2.96 1.974-6.169 2.467-3.208.432-6.416 1.48-6.416 5.737 0 3.887 2.838 5.676 6.416 5.676 2.283 0 4.75-.617 6.354-2.344 0 2.282 5.614 1.85 5.614 1.85-.493-.74-.678-2.467-.678-4.195v-9.808c0-4.504-4.565-5.368-8.329-5.368-4.256 0-8.575 1.481-8.883 6.293h5.244zM.864 52.314h18.384v4.811H6.663v6.046h10.98v4.442H6.664v8.883c0 1.234.185 1.913.185 1.913s-5.984.37-5.984-2.283V52.314zM152.314 47.872h5.737V37.693h5.738c2.9 0 3.948 1.234 4.38 3.948.308 2.098.246 4.627.925 6.231h5.737c-1.048-1.48-.987-4.503-1.11-6.169-.185-2.653-.987-5.367-3.825-6.107v-.062c2.9-1.172 4.133-3.455 4.133-6.54 0-3.947-2.96-7.217-7.65-7.217h-14.065v26.095zm5.737-21.592h6.293c2.53 0 3.948 1.11 3.948 3.64 0 2.653-1.357 3.702-3.948 3.702h-6.293V26.28zm35.35 13.45c.37-5.8-2.715-11.229-9.193-11.229-5.737 0-9.623 4.319-9.623 9.994 0 5.86 3.701 9.932 9.623 9.932 4.257 0 7.403-1.912 8.822-6.354h-4.565c-.309 1.172-2.036 2.468-4.072 2.468-2.9 0-4.503-1.48-4.626-4.812H193.4zm-13.634-3.332c.061-1.48 1.048-4.01 4.318-4.01 2.53 0 3.64 1.357 4.133 4.01h-8.451zm35.163 11.474h5.182V28.995h-5.182v18.877zm5.182-26.095h-5.182v4.257h5.182v-4.257zm.987 16.718c0 5.984 3.825 9.932 9.747 9.932 5.984 0 9.81-3.948 9.81-9.932 0-6.045-3.826-9.994-9.81-9.994-5.922 0-9.747 3.949-9.747 9.994zm5.182 0c0-3.023 1.049-6.045 4.565-6.045 3.517 0 4.627 3.022 4.627 6.045s-1.049 6.046-4.627 6.046c-3.516-.062-4.565-3.085-4.565-6.046zm46.885 2.098c0 1.11-.123 4.318-4.195 4.318-1.665 0-3.146-.493-3.146-2.406 0-1.912 1.48-2.467 3.085-2.776 1.603-.308 3.454-.308 4.318-1.11v1.974h-.062zm-6.786-5.8c.185-2.035 1.48-2.837 3.393-2.837 1.85 0 3.332.308 3.332 2.53 0 2.097-2.962 1.973-6.108 2.467-3.208.432-6.416 1.48-6.416 5.737 0 3.887 2.838 5.676 6.416 5.676 2.283 0 4.689-.617 6.354-2.345 0 2.345 5.614 1.851 5.614 1.851-.493-.74-.678-2.467-.678-4.195v-9.809c0-4.503-4.504-5.367-8.267-5.367-4.257 0-8.575 1.48-8.883 6.293h5.243zm16.595 13.018a3.61 3.61 0 0 1-.802-.124h-.308l-.124-.062-.123-.061-.124-.062-.123-.062-.123-.061-.124-.062-.123-.062h-.062c-.555-.246-.925-.617-1.049-1.11V21.777h5.182v21.839c.062 1.789.186 3.393.68 4.195-.063.061-1.358.123-2.777 0zm-41.271.061V29.057h4.935v2.652h.124c1.295-2.097 3.578-3.146 5.737-3.146 5.49 0 6.91 3.085 6.91 7.773V45.405c0 1.727.184 1.727.678 2.467 0 0-1.357.124-2.715 0-1.542-.123-3.084-.617-3.084-1.789v-8.822c0-3.084-.926-4.626-3.331-4.626-2.777 0-4.01 1.542-4.01 5.367v9.87h-5.244zm-28.44-18.877h-4.935v2.53h-.061c-1.234-2.222-3.147-3.024-5.614-3.024-5.306 0-8.143 4.442-8.143 9.377 0 5.182 2.406 9.5 8.081 9.5 2.283 0 4.504-.925 5.676-2.899h.061v2.468c.062 2.714-1.295 4.688-4.195 4.688-1.85 0-3.393-.678-3.886-2.59 0 0-5.984.061-3.887 3.269 1.604 1.974 4.504 2.838 7.095 2.838 8.698 0 9.809-5.244 9.809-8.39V28.995zM203.95 43.43c-3.208 0-4.195-2.96-4.195-5.675 0-2.838 1.296-5.367 4.195-5.367 3.332 0 4.442 2.714 4.442 5.799-.062 2.714-1.48 5.243-4.442 5.243zM.37 5.799c0-1.79.494-3.146 1.419-4.133.925-.987 2.16-1.48 3.64-1.48.987 0 1.85.246 2.652.678.802.432 1.358 1.11 1.79 1.974.431.863.616 1.789.616 2.838a6.473 6.473 0 0 1-.678 2.899 4.274 4.274 0 0 1-1.85 1.912c-.803.432-1.605.617-2.53.617-.987 0-1.913-.246-2.653-.74-.74-.493-1.419-1.11-1.789-1.912C.617 7.65.37 6.724.37 5.799zm1.419 0c0 1.295.37 2.282 1.049 3.023.678.74 1.542 1.11 2.59 1.11 1.05 0 1.913-.37 2.592-1.11.678-.74 1.049-1.79 1.049-3.146 0-.864-.124-1.604-.432-2.283-.309-.679-.74-1.172-1.296-1.48-.555-.309-1.172-.556-1.912-.556-.987 0-1.85.37-2.591 1.049-.74.679-1.049 1.789-1.049 3.393zm11.598 5.12l-2.344-7.65H12.4l1.234 4.442.431 1.666c0-.062.124-.617.37-1.604L15.67 3.27h1.358l1.172 4.441.37 1.48.432-1.48 1.295-4.441h1.296l-2.406 7.65h-1.357l-1.234-4.628-.309-1.295-1.542 5.922h-1.357zm9.13 0V3.27h1.172V4.38c.555-.864 1.357-1.295 2.468-1.295.493 0 .864.061 1.295.246.432.185.679.37.864.679.185.308.308.617.432.987.062.247.062.679.062 1.295v4.75h-1.296V6.355c0-.555-.062-.925-.123-1.172-.062-.247-.309-.494-.556-.617-.246-.123-.555-.247-.925-.247-.555 0-1.049.185-1.419.556-.432.37-.617 1.048-.617 1.974v4.195h-1.357v-.124zm13.325-2.467l1.357.185a3.223 3.223 0 0 1-1.172 1.85c-.555.432-1.295.617-2.22.617-1.111 0-2.036-.37-2.653-1.048-.617-.679-.987-1.666-.987-2.9 0-1.295.308-2.282.987-3.023.678-.74 1.542-1.048 2.59-1.048 1.05 0 1.852.37 2.53 1.048.679.679.987 1.666.987 2.961v.37h-5.737c.062.864.308 1.481.74 1.913a2.24 2.24 0 0 0 1.604.679c.494 0 .864-.124 1.234-.37.37-.247.555-.68.74-1.234zm-4.256-2.098h4.256c-.061-.617-.246-1.11-.493-1.48-.432-.494-.926-.74-1.604-.74-.617 0-1.11.184-1.48.616-.37.432-.618.926-.68 1.604zm12.091 4.565v-.987c-.494.802-1.234 1.172-2.16 1.172a3.103 3.103 0 0 1-1.665-.493 2.99 2.99 0 0 1-1.172-1.42c-.308-.616-.432-1.295-.432-2.097 0-.74.124-1.48.37-2.097.247-.617.617-1.11 1.172-1.419.556-.308 1.05-.493 1.666-.493.494 0 .864.123 1.234.308s.679.432.864.74V.37h1.295v10.61h-1.172v-.06zm-4.133-3.825c0 .987.185 1.728.617 2.221.431.494.925.74 1.48.74.555 0 1.049-.246 1.42-.678.37-.432.616-1.172.616-2.16 0-1.048-.185-1.85-.617-2.343-.432-.494-.925-.74-1.48-.74-.556 0-1.05.246-1.42.678-.37.432-.616 1.295-.616 2.282zm16.224 2.9a4.388 4.388 0 0 1-1.419.864 3.825 3.825 0 0 1-1.418.246c-.864 0-1.481-.185-1.975-.617-.493-.431-.678-.925-.678-1.604 0-.37.062-.74.247-1.048.185-.309.37-.556.678-.74.309-.186.617-.309.926-.432a9.405 9.405 0 0 1 1.172-.185c1.048-.124 1.85-.247 2.344-.432v-.37c0-.556-.123-.926-.37-1.11-.309-.31-.802-.433-1.48-.433-.618 0-1.05.124-1.358.309-.308.185-.493.617-.617 1.11l-1.295-.185c.123-.555.308-.987.555-1.295.247-.309.678-.617 1.172-.802.494-.185 1.049-.185 1.727-.185.679 0 1.172.061 1.604.246.432.185.74.37.926.556.185.185.308.555.431.863.062.247.062.617.062 1.172V7.65c0 1.233 0 1.974.062 2.282.062.309.185.617.308.926h-1.357a1.597 1.597 0 0 1-.247-.864zm-.123-2.9c-.494.185-1.172.37-2.098.494a5.084 5.084 0 0 0-1.11.247c-.185.061-.37.246-.493.432-.124.185-.186.37-.186.616 0 .37.124.617.37.864.247.247.618.37 1.173.37.493 0 .925-.123 1.357-.308.432-.185.679-.494.864-.926.123-.308.185-.74.185-1.295v-.494h-.062zm3.208 3.825V3.27h1.172V4.38c.555-.864 1.357-1.295 2.468-1.295.493 0 .863.061 1.295.246.432.185.679.37.864.679.185.308.308.617.432.987.061.247.061.679.061 1.295v4.75H63.85V6.355c0-.555-.062-.925-.124-1.172-.061-.247-.308-.494-.555-.617-.247-.123-.555-.247-.925-.247-.555 0-1.049.185-1.419.556-.37.37-.617 1.048-.617 1.974v4.195h-1.357v-.124zm13.017 0v-.987c-.494.74-1.173 1.172-2.16 1.172a3.103 3.103 0 0 1-1.665-.493 2.99 2.99 0 0 1-1.172-1.42c-.247-.616-.432-1.295-.432-2.097 0-.74.123-1.48.37-2.097s.617-1.11 1.172-1.419c.555-.308 1.11-.493 1.727-.493.494 0 .864.123 1.234.308s.679.432.864.74V.37h1.295v10.61H71.87v-.06zm-4.072-3.825c0 .987.185 1.728.617 2.221.432.494.925.74 1.48.74.556 0 1.05-.246 1.42-.678.37-.432.616-1.172.616-2.16 0-1.048-.185-1.85-.617-2.343-.431-.494-.925-.74-1.48-.74-.555 0-1.049.246-1.42.678-.37.432-.616 1.295-.616 2.282zm10.673 0c0-1.418.37-2.467 1.172-3.146a3.708 3.708 0 0 1 2.406-.863c1.048 0 1.912.37 2.59 1.048.68.679.988 1.666.988 2.838 0 .987-.124 1.79-.432 2.344-.309.556-.74.987-1.296 1.296a3.769 3.769 0 0 1-1.85.493c-1.05 0-1.975-.37-2.591-1.048-.617-.679-.987-1.666-.987-2.962zm1.357 0c0 .987.185 1.728.617 2.221.431.494.987.74 1.604.74.616 0 1.172-.246 1.604-.74.431-.493.616-1.234.616-2.22 0-.926-.185-1.666-.616-2.16a2.077 2.077 0 0 0-1.604-.74c-.679 0-1.173.247-1.604.74-.432.494-.617 1.172-.617 2.16zm7.218 6.786V3.27h1.172v.987c.308-.37.617-.679.925-.864.308-.185.802-.308 1.295-.308.68 0 1.234.185 1.728.493.493.309.863.802 1.11 1.419.247.617.37 1.295.37 2.036 0 .802-.123 1.48-.431 2.097-.309.617-.679 1.11-1.234 1.42-.555.308-1.11.493-1.666.493-.432 0-.802-.062-1.172-.247-.37-.185-.617-.432-.864-.679v3.763h-1.233zm1.172-6.724c0 .987.185 1.727.617 2.221.431.494.863.679 1.48.679.555 0 1.049-.247 1.48-.74.433-.494.618-1.235.618-2.283 0-.987-.185-1.728-.617-2.221-.432-.494-.864-.74-1.42-.74-.554 0-1.048.246-1.48.802-.432.555-.678 1.295-.678 2.282zm12.153 1.296l1.357.185a3.223 3.223 0 0 1-1.172 1.85c-.555.432-1.296.679-2.221.679-1.11 0-2.036-.37-2.653-1.049-.617-.678-.987-1.665-.987-2.9 0-1.295.309-2.282.987-3.022.679-.74 1.542-1.049 2.591-1.049 1.049 0 1.85.37 2.53 1.049.678.679.987 1.666.987 2.961v.37h-5.738c.062.864.309 1.48.74 1.913a2.24 2.24 0 0 0 1.605.678c.493 0 .863-.123 1.233-.37.37-.247.556-.74.74-1.295zm-4.257-2.098h4.257c-.062-.617-.247-1.11-.494-1.48-.432-.494-.925-.74-1.604-.74-.617 0-1.11.184-1.48.616-.37.432-.617.926-.679 1.604zm7.094 4.565V3.27h1.173v1.173c.308-.555.555-.926.802-1.049.246-.123.555-.247.863-.247.432 0 .864.124 1.357.432l-.431 1.234c-.309-.185-.617-.309-.926-.309-.308 0-.555.062-.74.247-.185.185-.37.432-.494.74-.123.494-.246.988-.246 1.543v4.01h-1.358v-.124zm9.81-.925a4.388 4.388 0 0 1-1.42.864 3.825 3.825 0 0 1-1.419.246c-.863 0-1.48-.185-1.974-.617-.493-.431-.678-.925-.678-1.604 0-.37.061-.74.247-1.048.185-.309.37-.556.678-.74.309-.186.617-.309.926-.432a9.405 9.405 0 0 1 1.172-.185c1.048-.124 1.85-.247 2.344-.432v-.37c0-.556-.123-.926-.37-1.11-.309-.31-.802-.433-1.48-.433-.618 0-1.05.124-1.358.309-.308.185-.494.617-.617 1.11l-1.295-.185c.123-.555.308-.987.555-1.295.247-.309.678-.617 1.172-.802.493-.185 1.11-.247 1.727-.247.679 0 1.172.062 1.604.247.432.185.74.37.926.555.185.185.308.555.431.863.062.247.062.617.062 1.173v1.727c0 1.234 0 1.974.062 2.283.061.308.185.616.308.925h-1.357c-.123-.124-.185-.432-.247-.802zm-.124-2.9c-.494.185-1.172.37-2.098.494a5.084 5.084 0 0 0-1.11.247c-.185.061-.37.246-.494.432-.123.185-.185.37-.185.616 0 .37.124.617.37.864.247.247.617.37 1.173.37.493 0 .925-.123 1.357-.308.432-.185.678-.494.864-.926.123-.308.185-.74.185-1.295v-.494h-.062zm6.046 2.715l.185 1.172c-.37.062-.679.123-.987.123-.494 0-.864-.061-1.11-.246-.248-.186-.433-.37-.556-.617-.123-.247-.185-.74-.185-1.543V4.257h-.925V3.27h.925V1.357l1.295-.802v2.653h1.296v.987h-1.296v4.503c0 .37 0 .617.062.74a.482.482 0 0 0 .247.247c.123.062.247.124.432.124h.617zm6.354-1.357l1.357.185a3.223 3.223 0 0 1-1.172 1.85c-.555.432-1.296.679-2.221.679-1.11 0-2.036-.37-2.653-1.049-.617-.678-.987-1.665-.987-2.9 0-1.295.309-2.282.987-3.022.679-.74 1.542-1.11 2.591-1.11 1.049 0 1.85.37 2.53 1.048.678.679.987 1.666.987 2.961v.37h-5.738c.062.864.309 1.481.74 1.913a2.24 2.24 0 0 0 1.605.679c.493 0 .863-.124 1.233-.37.37-.247.556-.68.74-1.234zm-4.257-2.098h4.257c-.062-.617-.247-1.11-.494-1.48-.432-.494-.925-.74-1.604-.74-.617 0-1.11.184-1.48.616-.37.432-.617.926-.679 1.604zm12.091 4.565v-.987c-.493.74-1.172 1.172-2.159 1.172a3.103 3.103 0 0 1-1.665-.493 2.99 2.99 0 0 1-1.173-1.42c-.246-.616-.431-1.295-.431-2.097 0-.74.123-1.48.37-2.097s.617-1.11 1.172-1.419c.555-.308 1.11-.493 1.727-.493.494 0 .864.123 1.234.308s.679.432.864.74V.37h1.295v10.61h-1.234v-.06zm-4.133-3.825c0 .987.185 1.728.617 2.221.432.494.925.74 1.48.74.556 0 1.05-.246 1.42-.678.37-.432.616-1.172.616-2.16 0-1.048-.185-1.85-.616-2.343-.432-.494-.926-.74-1.481-.74s-1.049.246-1.419.678c-.37.432-.617 1.295-.617 2.282zm12.4 3.825h-1.234V.37h1.296v3.763c.555-.678 1.233-1.048 2.097-1.048.494 0 .925.123 1.357.308.432.185.74.432 1.05.802.308.37.493.74.616 1.234.123.493.247.987.247 1.542 0 1.296-.309 2.344-.987 3.023-.679.678-1.42 1.049-2.345 1.049-.925 0-1.604-.37-2.159-1.11v.986h.062zm0-3.886c0 .925.123 1.604.37 1.974.432.678.987.987 1.666.987.555 0 1.048-.247 1.48-.74.432-.494.617-1.234.617-2.221 0-.987-.185-1.728-.617-2.221-.432-.494-.863-.74-1.419-.74-.555 0-1.048.246-1.48.74-.432.493-.617 1.295-.617 2.22zm6.848 6.847l-.124-1.233c.309.061.555.123.74.123.309 0 .494-.062.68-.123.184-.062.308-.247.431-.432.062-.124.185-.432.37-.987 0-.062.062-.185.123-.309l-2.899-7.711h1.419l1.604 4.442c.185.555.37 1.172.555 1.789a8.073 8.073 0 0 1 .555-1.728l1.666-4.503h1.295l-3.022 7.896c-.309.864-.556 1.42-.74 1.728-.247.431-.494.74-.803.925a2.08 2.08 0 0 1-1.048.308c-.247 0-.494-.061-.802-.185z"/><g><path d="M66.44 98.458l4.072-10.611h1.481l4.318 10.61h-1.604l-1.233-3.207h-4.38l-1.173 3.208h-1.48zm3.024-4.38h3.578l-1.11-2.962c-.31-.863-.618-1.604-.741-2.22a12.49 12.49 0 0 1-.555 2.035l-1.172 3.147zm7.65 4.38v-7.65h1.171v1.11c.556-.863 1.358-1.295 2.468-1.295.494 0 .864.062 1.296.247.431.185.678.37.863.678.185.309.309.617.432.987.062.247.062.679.062 1.296v4.75h-1.357v-4.812c0-.555-.062-.925-.124-1.172-.062-.247-.308-.494-.555-.617-.247-.123-.555-.247-.925-.247-.556 0-1.05.185-1.42.555-.37.37-.616 1.05-.616 1.975v4.195h-1.296zm10.24 0l4.072-10.611h1.48l4.318 10.61h-1.603l-1.234-3.207h-4.442l-1.172 3.208h-1.419zm3.084-4.38h3.579l-1.11-2.962c-.31-.863-.618-1.604-.741-2.22a12.49 12.49 0 0 1-.555 2.035l-1.173 3.147zm12.709 4.38v-1.11c-.617.863-1.42 1.295-2.406 1.295-.432 0-.864-.062-1.296-.247-.432-.185-.678-.37-.863-.679a3.657 3.657 0 0 1-.432-.987c-.062-.247-.062-.678-.062-1.234v-4.75h1.296v4.257c0 .678 0 1.11.061 1.357.062.37.247.617.494.802.247.185.617.309.987.309s.74-.124 1.11-.309c.37-.185.556-.493.74-.802.186-.308.186-.864.186-1.48v-4.134h1.295v7.65h-1.11v.062zm8.02-2.838l1.295.185a3.593 3.593 0 0 1-1.049 2.097c-.555.556-1.295.74-2.097.74-1.049 0-1.913-.37-2.53-1.048-.616-.679-.987-1.666-.987-2.961 0-.802.124-1.543.432-2.16.309-.616.679-1.11 1.234-1.418a3.769 3.769 0 0 1 1.85-.494c.865 0 1.543.185 2.037.617.493.432.863 1.049 1.048 1.79l-1.295.184c-.124-.493-.309-.925-.617-1.172a1.722 1.722 0 0 0-1.11-.37c-.68 0-1.173.247-1.604.678-.432.432-.617 1.234-.617 2.221 0 1.05.185 1.79.617 2.221.431.432.925.679 1.542.679.493 0 .925-.185 1.295-.494.37-.308.494-.617.556-1.295zM113.449 98.458V87.847h1.296v6.045l3.084-3.146h1.666l-2.961 2.838 3.208 4.812h-1.604l-2.53-3.948-.925.863v3.023h-1.234zM120.667 98.458V87.847h1.295v10.611zM128.872 97.532a4.388 4.388 0 0 1-1.42.864 3.825 3.825 0 0 1-1.418.247c-.864 0-1.48-.185-1.974-.617s-.679-.926-.679-1.604c0-.37.062-.74.247-1.049.185-.308.37-.555.679-.74.308-.185.617-.309.925-.432a9.405 9.405 0 0 1 1.172-.185c1.049-.124 1.85-.247 2.344-.432v-.37c0-.555-.123-.926-.37-1.11-.308-.309-.802-.432-1.48-.432-.617 0-1.05.123-1.358.308-.308.185-.493.617-.616 1.11l-1.296-.185c.123-.555.309-.987.555-1.295.247-.309.679-.617 1.172-.802.494-.185 1.11-.247 1.728-.247.678 0 1.172.062 1.604.247.432.185.74.37.925.555.185.185.309.555.432.864.062.247.062.617.062 1.172v1.727c0 1.234 0 1.974.061 2.283.062.308.185.617.309.925h-1.357c-.124-.123-.247-.493-.247-.802zm-.124-2.961c-.493.185-1.172.37-2.097.494-.555.061-.925.185-1.11.246-.186.062-.37.247-.494.432-.123.185-.185.37-.185.617 0 .37.123.617.37.864s.617.37 1.172.37c.494 0 .926-.123 1.357-.309.432-.185.679-.493.864-.925.123-.308.185-.74.185-1.295v-.494h-.062zm3.147 3.887v-7.65h1.172v1.11c.555-.863 1.357-1.295 2.467-1.295.494 0 .864.062 1.296.247.432.185.678.37.864.678.185.309.308.617.431.987.062.247.062.679.062 1.296v4.75h-1.295v-4.812c0-.555-.062-.925-.124-1.172-.062-.247-.308-.494-.555-.617-.247-.123-.555-.247-.925-.247-.556 0-1.05.185-1.42.555-.37.37-.616 1.05-.616 1.975v4.195h-1.357zm13.078 0v-.987c-.493.74-1.172 1.172-2.16 1.172a3.103 3.103 0 0 1-1.665-.494 2.99 2.99 0 0 1-1.172-1.419c-.247-.617-.432-1.295-.432-2.097 0-.74.124-1.48.37-2.098.247-.617.617-1.11 1.173-1.419.555-.308 1.11-.493 1.727-.493.493 0 .864.123 1.234.308s.678.432.863.74v-3.824h1.296v10.61h-1.234zm-4.072-3.825c0 .987.186 1.727.617 2.22.432.494.926.74 1.48.74.556 0 1.05-.246 1.42-.678.37-.432.617-1.172.617-2.159 0-1.049-.185-1.85-.617-2.344-.432-.494-.926-.74-1.48-.74-.556 0-1.05.246-1.42.678-.37.432-.617 1.234-.617 2.283zm18.878.123l1.419.37c-.309 1.172-.802 2.036-1.604 2.653s-1.728.925-2.776.925c-1.172 0-2.098-.246-2.776-.678-.679-.432-1.234-1.11-1.604-2.036a7.5 7.5 0 0 1-.556-2.838c0-1.11.185-2.036.617-2.9.432-.863 1.049-1.418 1.79-1.85.74-.432 1.665-.617 2.59-.617 1.05 0 1.974.247 2.653.802s1.234 1.296 1.48 2.283l-1.357.308c-.246-.74-.617-1.357-1.048-1.666a3.083 3.083 0 0 0-1.79-.555c-.801 0-1.48.185-2.035.555-.555.37-.926.926-1.172 1.543-.247.617-.309 1.357-.309 2.035 0 .926.124 1.666.37 2.345.247.678.679 1.172 1.234 1.48.555.309 1.172.494 1.79.494.801 0 1.48-.247 1.973-.679.494-.432.926-1.11 1.11-1.974zm2.344-.123c0-1.42.37-2.468 1.172-3.146a3.708 3.708 0 0 1 2.406-.864c1.049 0 1.912.37 2.591 1.049.679.678.987 1.665.987 2.837 0 .987-.123 1.79-.432 2.345-.308.555-.74.987-1.295 1.295a3.769 3.769 0 0 1-1.85.494c-1.05 0-1.975-.37-2.592-1.05-.617-.678-.987-1.665-.987-2.96zm1.357 0c0 .987.185 1.727.617 2.22.432.494.987.74 1.604.74.617 0 1.172-.246 1.604-.74.432-.493.617-1.233.617-2.22 0-.926-.185-1.666-.617-2.16a2.077 2.077 0 0 0-1.604-.74c-.679 0-1.172.247-1.604.74-.432.494-.617 1.173-.617 2.16zm12.215 3.825v-1.11c-.617.863-1.419 1.295-2.406 1.295-.432 0-.864-.062-1.295-.247-.432-.185-.68-.37-.864-.679a3.657 3.657 0 0 1-.432-.987c-.062-.247-.062-.678-.062-1.234v-4.75h1.296v4.257c0 .678 0 1.11.062 1.357.061.37.246.617.493.802.247.185.617.309.987.309s.74-.124 1.11-.309c.37-.185.556-.493.74-.802.186-.308.186-.864.186-1.48v-4.134h1.295v7.65h-1.11v.062zm3.085 0v-7.65h1.172v1.11c.555-.863 1.357-1.295 2.467-1.295.494 0 .864.062 1.296.247.432.185.678.37.863.678.185.309.309.617.432.987.062.247.062.679.062 1.296v4.75h-1.296v-4.812c0-.555-.061-.925-.123-1.172-.062-.247-.308-.494-.555-.617-.247-.123-.555-.247-.926-.247-.555 0-1.048.185-1.418.555-.37.37-.617 1.05-.617 1.975v4.195h-1.357zm13.078-2.838l1.295.185a3.593 3.593 0 0 1-1.048 2.097c-.556.556-1.296.74-2.098.74-1.049 0-1.912-.37-2.53-1.048-.616-.679-.986-1.666-.986-2.961 0-.802.123-1.543.432-2.16.308-.616.678-1.11 1.233-1.418a3.769 3.769 0 0 1 1.851-.494c.864 0 1.542.185 2.036.617s.864 1.049 1.049 1.79l-1.296.184c-.123-.493-.308-.925-.617-1.172a1.722 1.722 0 0 0-1.11-.37c-.679 0-1.172.247-1.604.678-.432.432-.617 1.234-.617 2.221 0 1.05.185 1.79.617 2.221.432.432.925.679 1.542.679.494 0 .926-.185 1.296-.494.37-.308.493-.617.555-1.295zm2.282-6.293v-1.48h1.296v1.48h-1.296zm0 9.13v-7.65h1.296v7.65h-1.296zM197.225 98.458V87.847h1.296v10.611zM204.134 93.276c0-1.79.494-3.147 1.42-4.134.925-.987 2.158-1.48 3.639-1.48.987 0 1.85.246 2.653.678.802.432 1.357 1.11 1.789 1.974.432.864.617 1.79.617 2.838a6.473 6.473 0 0 1-.679 2.9 4.274 4.274 0 0 1-1.85 1.912c-.803.432-1.666.679-2.592.679-.987 0-1.912-.247-2.652-.74-.74-.494-1.358-1.111-1.79-1.975-.431-.863-.555-1.727-.555-2.652zm1.42.061c0 1.296.37 2.283 1.048 3.023.679.74 1.542 1.11 2.591 1.11 1.049 0 1.912-.37 2.591-1.11.679-.74 1.049-1.789 1.049-3.146 0-.864-.124-1.604-.432-2.283-.309-.678-.74-1.172-1.296-1.48-.555-.309-1.172-.555-1.912-.555-.987 0-1.85.37-2.591 1.048-.74.679-1.049 1.79-1.049 3.393zm10.178 5.12v-7.65h1.172v1.173c.309-.555.556-.925.802-1.049.247-.123.556-.246.864-.246.432 0 .864.123 1.357.431l-.432 1.234c-.308-.185-.617-.308-.925-.308-.308 0-.555.061-.74.246-.185.186-.37.432-.494.74-.123.494-.247.988-.247 1.543v4.01h-1.357v-.123zm4.565.617l1.296.186c.062.37.185.678.432.863.308.247.74.37 1.295.37.617 0 1.049-.123 1.419-.37.37-.247.555-.555.679-.987.061-.247.123-.802.123-1.665-.555.678-1.295.987-2.097.987-1.05 0-1.851-.37-2.468-1.173-.617-.802-.864-1.665-.864-2.714 0-.74.124-1.419.37-2.036a2.99 2.99 0 0 1 1.173-1.419 3.373 3.373 0 0 1 1.789-.493c.925 0 1.665.37 2.22 1.11v-.925h1.173v6.663c0 1.172-.124 2.035-.37 2.529-.247.493-.618.863-1.173 1.172-.555.308-1.172.432-1.974.432-.925 0-1.665-.185-2.22-.617-.556-.432-.864-1.049-.803-1.913zm1.05-4.626c0 .987.184 1.727.616 2.22.432.494.925.68 1.48.68.617 0 1.111-.248 1.481-.68.37-.431.617-1.172.617-2.159 0-.925-.185-1.665-.617-2.097-.432-.432-.925-.74-1.48-.74-.556 0-1.05.246-1.481.678-.432.432-.617 1.172-.617 2.098zm12.275 3.084a4.388 4.388 0 0 1-1.418.864 3.825 3.825 0 0 1-1.42.247c-.863 0-1.48-.185-1.973-.617-.494-.432-.679-.926-.679-1.604 0-.37.062-.74.247-1.049.185-.308.37-.555.678-.74.309-.185.617-.309.926-.432a9.405 9.405 0 0 1 1.172-.185c1.049-.124 1.85-.247 2.344-.432v-.37c0-.555-.123-.926-.37-1.11-.308-.309-.802-.432-1.48-.432-.618 0-1.05.123-1.358.308-.308.185-.493.617-.617 1.11l-1.295-.185c.123-.555.308-.987.555-1.295.247-.309.679-.617 1.172-.802.494-.185 1.11-.247 1.727-.247.68 0 1.173.062 1.604.247.432.185.74.37.926.555.185.185.308.555.432.864.061.247.061.617.061 1.172v1.727c0 1.234 0 1.974.062 2.283.062.308.185.617.308.925h-1.357c-.123-.123-.247-.493-.247-.802zm-.123-2.961c-.493.185-1.172.37-2.097.494a5.084 5.084 0 0 0-1.11.246c-.186.062-.37.247-.494.432s-.185.37-.185.617c0 .37.123.617.37.864s.617.37 1.172.37c.493 0 .925-.123 1.357-.309.432-.185.679-.493.864-.925.123-.308.185-.74.185-1.295v-.494h-.062zm3.208 3.887v-7.65h1.172v1.11c.555-.863 1.357-1.295 2.468-1.295.493 0 .863.062 1.295.247.432.185.679.37.864.678.185.309.308.617.432.987.061.247.061.679.061 1.296v4.75h-1.295v-4.812c0-.555-.062-.925-.123-1.172-.062-.247-.309-.494-.556-.617-.246-.123-.555-.247-.925-.247-.555 0-1.049.185-1.419.555-.37.37-.617 1.05-.617 1.975v4.195h-1.357zm8.081-9.13v-1.481h1.296v1.48h-1.296zm0 9.13v-7.65h1.296v7.65h-1.296zm2.592-2.283l1.295-.185c.062.493.247.925.617 1.172.37.247.802.432 1.357.432.617 0 1.049-.123 1.357-.37.309-.247.432-.555.432-.864 0-.308-.123-.555-.37-.679-.185-.123-.617-.246-1.357-.431-.926-.247-1.604-.432-1.974-.617-.37-.185-.679-.432-.864-.74a2.08 2.08 0 0 1-.308-1.05c0-.37.061-.678.246-.925.185-.246.37-.555.617-.74.185-.123.494-.247.802-.37.309-.123.74-.185 1.11-.185.618 0 1.111.062 1.605.247.493.185.802.431.987.678.185.247.37.679.431 1.172l-1.295.185a1.697 1.697 0 0 0-.494-.925c-.246-.247-.678-.308-1.172-.308-.617 0-1.048.123-1.295.308-.247.185-.37.432-.37.679a.56.56 0 0 0 .185.431c.123.124.247.247.493.37.124.062.494.186 1.172.31.926.246 1.543.43 1.913.616.37.185.678.37.863.679.186.308.309.678.309 1.11 0 .432-.123.864-.37 1.234s-.617.678-1.11.863a4.369 4.369 0 0 1-1.605.309c-.987 0-1.727-.185-2.282-.617-.555-.432-.74-.987-.925-1.789zm12.831 1.357a4.388 4.388 0 0 1-1.419.864 3.825 3.825 0 0 1-1.419.247c-.863 0-1.48-.185-1.974-.617-.493-.432-.678-.926-.678-1.604 0-.37.061-.74.246-1.049.186-.308.37-.555.679-.74.309-.185.617-.309.925-.432a9.405 9.405 0 0 1 1.173-.185c1.048-.124 1.85-.247 2.344-.432v-.37c0-.555-.124-.926-.37-1.11-.309-.309-.802-.432-1.48-.432-.618 0-1.05.123-1.358.308-.309.185-.494.617-.617 1.11l-1.296-.185c.124-.555.309-.987.556-1.295.246-.309.678-.617 1.172-.802.493-.185 1.11-.247 1.727-.247.679 0 1.172.062 1.604.247.432.185.74.37.925.555.186.185.309.555.432.864.062.247.062.617.062 1.172v1.727c0 1.234 0 1.974.062 2.283.061.308.185.617.308.925h-1.357c-.123-.123-.247-.493-.247-.802zm-.123-2.961c-.494.185-1.172.37-2.098.494-.555.061-.925.185-1.11.246-.185.062-.37.247-.494.432-.123.185-.185.37-.185.617 0 .37.124.617.37.864.247.247.617.37 1.173.37.493 0 .925-.123 1.357-.309.432-.185.678-.493.863-.925.124-.308.185-.74.185-1.295v-.494h-.061zm5.984 2.714l.185 1.173c-.37.061-.679.123-.987.123-.494 0-.864-.062-1.11-.247-.247-.185-.432-.37-.556-.617-.123-.246-.185-.74-.185-1.542v-4.442h-.925v-.987h.925v-1.912l1.296-.802v2.653h1.295v.987h-1.295v4.503c0 .37 0 .617.061.74a.482.482 0 0 0 .247.247.892.892 0 0 0 .432.123c.247.062.432.062.617 0zm1.172-7.958v-1.48h1.295v1.48h-1.295zm0 9.13v-7.65h1.295v7.65h-1.295zm2.653-3.824c0-1.42.37-2.468 1.172-3.146a3.708 3.708 0 0 1 2.406-.864c1.048 0 1.912.37 2.59 1.049.68.678.988 1.665.988 2.837 0 .987-.124 1.79-.432 2.345-.309.555-.74.987-1.296 1.295a3.769 3.769 0 0 1-1.85.494c-1.05 0-1.974-.37-2.591-1.05-.617-.678-.987-1.665-.987-2.96zm1.295 0c0 .987.185 1.727.617 2.22.432.494.987.74 1.604.74.617 0 1.172-.246 1.604-.74.432-.493.617-1.233.617-2.22 0-.926-.185-1.666-.617-2.16a2.077 2.077 0 0 0-1.604-.74c-.679 0-1.172.247-1.604.74-.432.494-.617 1.173-.617 2.16zm7.28 3.825v-7.65h1.172v1.11c.555-.863 1.357-1.295 2.467-1.295.494 0 .864.062 1.296.247.432.185.678.37.864.678.185.309.308.617.431.987.062.247.062.679.062 1.296v4.75h-1.295v-4.812c0-.555-.062-.925-.124-1.172-.062-.247-.308-.494-.555-.617-.247-.123-.555-.247-.925-.247-.556 0-1.05.185-1.42.555-.37.37-.616 1.05-.616 1.975v4.195h-1.357z"/></g></svg>